<?xml version="1.0" encoding="UTF-8" standalone="no"?>
<svg
   width="50"
   height="30"
   viewBox="0 0 50 30"
   fill="none"
   version="1.1"
   id="svg2609"
   sodipodi:docname="logomarcas__dellabianca--footer.svg"
   inkscape:version="1.2 (dc2aedaf03, 2022-05-15)"
   xmlns:inkscape="http://www.inkscape.org/namespaces/inkscape"
   xmlns:sodipodi="http://sodipodi.sourceforge.net/DTD/sodipodi-0.dtd"
   xmlns="http://www.w3.org/2000/svg"
   xmlns:svg="http://www.w3.org/2000/svg">
  <sodipodi:namedview
     id="namedview2611"
     pagecolor="#444444"
     bordercolor="#000000"
     borderopacity="0.25"
     inkscape:showpageshadow="2"
     inkscape:pageopacity="0"
     inkscape:pagecheckerboard="0"
     inkscape:deskcolor="#d1d1d1"
     showgrid="false"
     inkscape:zoom="5.6568543"
     inkscape:cx="12.551145"
     inkscape:cy="13.081475"
     inkscape:window-width="1366"
     inkscape:window-height="705"
     inkscape:window-x="-8"
     inkscape:window-y="-8"
     inkscape:window-maximized="1"
     inkscape:current-layer="g2602" />
  <g
     clip-path="url(#clip0_60_311)"
     id="g2602">
    <path
       d="M25.1389 0.00125198C22.8419 -0.0199122 20.5489 0.226935 18.3257 0.765916L18.1837 0.800702C16.5604 1.19714 14.9393 1.71642 13.4613 2.42983C13.3679 2.4758 13.2744 2.52165 13.1804 2.56665C12.0379 3.11046 10.9542 3.71157 9.90571 4.38465L9.80336 4.45061C9.37636 4.72531 8.97067 5.0174 8.57183 5.32238C8.51123 5.36901 8.45056 5.41556 8.38981 5.46204C8.12396 5.6602 7.87 5.86531 7.6222 6.0806L7.49372 6.19312C6.91461 6.6995 6.3616 7.21921 5.83298 7.76582L5.76465 7.83668C5.65201 7.95331 5.54044 8.07049 5.43039 8.18899L5.31029 8.3204C2.48127 11.411 0.588409 15.2716 0.140221 19.2164C0.125941 19.3489 0.111534 19.4812 0.0946673 19.6135C0.00761041 20.29 0.000857133 20.965 9.82959e-06 21.645V21.7987C-0.00241182 24.1756 0.442677 26.4602 1.27157 28.7247C1.33048 28.5606 1.30151 28.449 1.24959 28.2834C1.06406 27.7054 0.935776 27.1188 0.832403 26.5256L0.817219 26.438C0.493463 24.5852 0.46708 22.6139 0.734295 20.7533C0.747642 20.6654 0.760953 20.5775 0.774031 20.4896C0.882013 19.763 1.03076 19.0557 1.2343 18.3449L1.27157 18.2147C1.66416 16.8223 2.16491 15.45 2.89298 14.16C2.94106 14.0758 2.98881 13.9916 3.03536 13.9068C3.44488 13.1563 3.94998 12.4694 4.5199 11.8039L4.60352 11.7065C4.972 11.2742 5.35202 10.8554 5.7611 10.4516C5.81285 10.4009 5.86451 10.3501 5.9161 10.2993C6.11992 10.0934 6.32628 9.89255 6.54665 9.69994L6.64496 9.61491C7.24257 9.09691 7.85374 8.59298 8.50113 8.12226L8.59175 8.05655C9.61597 7.30928 10.7074 6.62967 11.8637 6.04539L11.9742 5.98973C12.5863 5.67914 13.199 5.37646 13.8441 5.12054C13.9741 5.06959 14.1041 5.01846 14.2335 4.96637C16.1788 4.18342 18.2929 3.5781 20.4218 3.33406C20.5403 3.32085 20.6585 3.30713 20.7766 3.29155C22.7513 3.02148 24.7352 2.95348 26.7268 3.11917L26.8669 3.13137C27.0807 3.14989 27.2939 3.1706 27.5071 3.19424C27.6286 3.2083 27.7502 3.22201 27.8719 3.23529C27.9788 3.24688 28.0858 3.25858 28.1927 3.27033L28.3531 3.28803L28.5084 3.30495L28.6526 3.32118C28.7307 3.32985 28.8087 3.33957 28.8863 3.35124C28.9873 3.39521 28.9873 3.39521 29.1797 3.42407C30.3252 3.58475 31.4798 3.83621 32.5675 4.19002C32.707 4.23624 32.8466 4.28188 32.9868 4.3265C35.8132 5.22266 38.4609 6.54206 40.7486 8.24859C40.7996 8.28723 40.8505 8.32581 40.9015 8.36437C41.2307 8.60647 41.5368 8.86687 41.8407 9.13256L41.9238 9.20539C42.3037 9.53722 42.6839 9.86836 43.0447 10.2161L43.1733 10.3432C43.5541 10.7194 43.9195 11.1046 44.2706 11.5021L44.3344 11.5745C45.4395 12.8232 46.3818 14.1765 47.137 15.6092L47.212 15.7521C47.5491 16.3904 47.8478 17.0337 48.1035 17.6998L48.1428 17.8025C49.3065 20.8451 49.7324 24.1474 49.2487 27.3364L49.2313 27.4495C49.1379 28.071 49.0253 28.6828 48.8622 29.2937L48.8196 29.4468L48.7807 29.5889C48.7367 29.7446 48.7171 29.8468 48.777 30C49.32 28.593 49.6756 27.1242 49.87 25.6493L49.8876 25.5146C49.9784 24.897 50.0015 24.2875 49.9999 23.665C49.999 23.4917 49.9981 23.3185 49.9979 23.1452C49.9979 22.2192 49.9908 21.2994 49.8438 20.381L49.8276 20.2816C49.553 18.5527 49.0524 16.8724 48.331 15.2618C48.3068 15.2369 48.2823 15.2111 48.2595 15.1911C47.0269 12.6777 45.1359 9.99513 42.9415 8.04006C41.6746 6.94428 40.3002 5.9437 38.8445 5.04359C38.9451 5.08804 39.0442 5.13462 39.1429 5.18152C39.1065 5.15772 39.07 5.13405 39.0336 5.11024C39.0817 5.13747 39.1265 5.16849 39.1743 5.19604C41.0125 6.07535 42.5437 7.3664 43.9866 8.67512C45.6321 10.3578 47.102 12.1986 48.1312 14.2252C48.3794 14.7414 48.6588 15.2694 48.8554 15.8041C48.8465 15.6858 48.8122 15.4445 48.7009 15.08C47.8068 12.7935 46.5717 10.6641 44.9146 8.71634L44.8392 8.62822C44.5449 8.28381 44.237 7.95086 43.9173 7.62419C43.8712 7.57777 43.8251 7.53134 43.7791 7.48488C43.5206 7.21735 43.2438 6.9685 42.9601 6.7215C42.8746 6.64733 42.7892 6.57314 42.704 6.49871C42.2127 6.0691 41.7113 5.64871 41.1838 5.25264L41.1066 5.19544C40.7867 4.95766 40.459 4.72919 40.1257 4.50584L40.0432 4.45061C37.0431 2.42594 33.4447 1.00944 29.7114 0.412657C29.6046 0.395819 29.4978 0.378574 29.3911 0.360953C28.7964 0.247857 28.206 0.178024 27.6005 0.125017L27.4349 0.110846C26.6708 0.0451302 25.9046 0.00830686 25.1389 0.00125198Z"
       fill="#DEA52E"
       id="path2554"
       style="fill:#ffffff" />
    <path
       d="M16.1753 21.7893C16.3602 21.7893 16.5101 21.6588 16.5101 21.4977C16.5101 21.3367 16.3602 21.2061 16.1753 21.2061C15.9905 21.2061 15.8406 21.3367 15.8406 21.4977C15.8406 21.6588 15.9905 21.7893 16.1753 21.7893Z"
       fill="#FCFCF8"
       id="path2556" />
    <path
       d="M16.8437 21.454C17.0791 21.454 17.27 21.2878 17.27 21.0827C17.27 20.8777 17.0791 20.7114 16.8437 20.7114C16.6083 20.7114 16.4175 20.8777 16.4175 21.0827C16.4175 21.2878 16.6083 21.454 16.8437 21.454Z"
       fill="#FCFCF8"
       id="path2558"
       style="fill:#fcfcff;fill-opacity:1" />
    <path
       d="M24.999 8.98001C25.4199 9.34658 25.5597 10.2342 25.5733 10.7225C25.5651 11.0139 25.5045 11.2549 25.4029 11.5306C25.3494 11.6925 25.2974 11.8548 25.2451 12.017C25.2188 12.0982 25.1924 12.1793 25.1659 12.2604C25.1544 12.2956 25.1429 12.3307 25.1311 12.3669C25.1 12.454 25.1 12.454 25.0495 12.542C25.0416 12.6542 25.0365 12.7653 25.0335 12.8776C25.0324 12.9107 25.0314 12.9438 25.0304 12.9778C25.027 13.0836 25.0241 13.1893 25.0211 13.295C25.019 13.3667 25.0167 13.4383 25.0145 13.5099C25.0091 13.6857 25.004 13.8614 24.9991 14.0371C24.6789 13.7666 24.4851 13.4549 24.4658 13.0587C24.4954 12.5728 24.682 12.0985 24.8927 11.6517C25.0757 11.255 25.117 10.867 25.1126 10.4422C25.1124 10.396 25.1123 10.3497 25.1121 10.3021C25.1082 10.0005 25.0843 9.7124 25.0211 9.41547C24.9958 9.26894 24.9957 9.12797 24.9991 8.98001H24.999Z"
       fill="#E0AB3C"
       id="path2560"
       style="fill:#ffffff" />
    <path
       d="M23.7875 5.59396C23.8041 5.59396 23.8208 5.59396 23.838 5.59396C23.8343 5.62299 23.8307 5.65201 23.8269 5.68191C23.7501 6.39594 23.6918 7.11471 23.9894 7.79271C24.3501 8.70713 24.4282 9.55278 24.0399 10.4752C24.0232 10.4752 24.0066 10.4752 23.9894 10.4752C23.9877 10.44 23.9859 10.4049 23.9842 10.3687C23.931 9.36729 23.7566 8.47848 23.356 7.53435C23.1373 7.00928 23.2162 6.57846 23.4846 6.07769C23.5806 5.91377 23.6811 5.75291 23.7875 5.59396H23.7875Z"
       fill="#DFA836"
       id="path2562"
       style="fill:#ffffff" />
    <path
       d="M26.3117 7.00116C26.3677 7.14762 26.3549 7.18803 26.3148 7.33372C26.1797 7.94673 26.2495 8.47826 26.4975 9.0607C26.6635 9.46124 26.7391 9.82797 26.7408 10.2553C26.7411 10.2973 26.7414 10.3393 26.7417 10.3826C26.7361 10.6545 26.6809 10.8826 26.5641 11.1348C26.5474 11.1348 26.5307 11.1348 26.5136 11.1348C26.5085 11.1023 26.5035 11.0698 26.4983 11.0363C26.3766 10.2642 26.2291 9.53937 25.9103 8.80945C25.7404 8.36981 25.7504 7.96908 25.9863 7.55385C26.0103 7.51386 26.0344 7.47387 26.0592 7.43266C26.0833 7.3908 26.1074 7.34894 26.1322 7.30581C26.191 7.20379 26.2509 7.1023 26.3117 7.00116H26.3117Z"
       fill="#DFA835"
       id="path2564"
       style="fill:#ffffff" />
    <path
       d="M20.6974 18.4323C20.0884 18.4345 19.5087 18.4913 18.9136 18.6474C17.0201 19.171 15.3532 20.3363 14.4265 21.8763C14.408 21.9079 14.3901 21.9385 14.3721 21.9691C14.3201 22.0566 14.2777 22.1386 14.2434 22.2213C14.1297 22.3615 13.9197 23.0499 13.9197 23.0499C13.9197 23.0499 13.8738 23.8106 13.9565 23.5704C14.0392 23.3302 14.3609 22.3492 14.3609 22.3492L14.3606 22.3484C14.6909 21.6468 15.2153 20.9866 15.8377 20.4693C15.8801 20.4354 15.9212 20.4025 15.9623 20.3695C16.2324 20.1499 16.5066 19.9365 16.8016 19.7424C16.8424 19.7164 16.882 19.6912 16.9215 19.6659C17.3736 19.3748 17.8525 19.1548 18.3681 18.9617C18.4279 18.9398 18.4279 18.9398 18.4865 18.9184C19.585 18.6557 19.585 18.6556 20.7339 18.655C20.7765 18.6548 20.8179 18.6547 20.8593 18.6545L20.9603 18.4346C20.8719 18.4328 20.7844 18.432 20.6974 18.4323L20.6974 18.4323Z"
       fill="#FAF6EA"
       id="path2566"
       style="fill:#000000" />
    <path
       d="M24.8981 3.96689C25.1713 4.19324 25.2634 4.51593 25.2768 4.83814C25.2639 5.14936 25.155 5.43052 25.0496 5.72588C24.8873 6.23402 24.7822 6.74313 24.6962 7.265C24.4623 7.06127 24.4853 6.67017 24.4753 6.3965C24.4809 6.0524 24.5858 5.74613 24.6962 5.41806C24.8432 4.93481 24.8805 4.46401 24.8981 3.96689Z"
       fill="#D7AE52"
       id="path2568"
       style="fill:#ffffff" />
    <path
       d="M26.1096 15.3564C26.1096 15.3709 26.1096 15.3854 26.1096 15.4004C26.2928 15.4149 26.4761 15.4294 26.6649 15.4443C26.6649 15.4588 26.6649 15.4734 26.6649 15.4883C26.6347 15.4887 26.6045 15.4891 26.5733 15.4896C25.0922 15.5149 23.9741 15.9968 22.8786 16.8516C22.8411 16.8805 22.8036 16.9094 22.765 16.9392C22.2092 17.394 21.8531 17.9799 21.5155 18.5666C21.4822 18.5666 21.4489 18.5666 21.4146 18.5666C21.6062 17.9323 22.0762 17.4153 22.5757 16.9395C22.6119 16.9044 22.648 16.8692 22.6853 16.833C23.4991 16.0815 24.8896 15.325 26.1096 15.3564V15.3564Z"
       fill="#FAF5E7"
       id="path2570"
       style="fill:#000000" />
    <path
       d="M14.145 22.6562C14.2033 22.8086 14.1725 22.891 14.128 23.0432C13.93 23.7273 13.8547 24.5352 14.145 25.2067C14.1633 25.2516 14.1817 25.2965 14.2006 25.3428C14.3245 25.6242 14.4753 25.8572 14.7003 26.0862C14.6837 26.1153 14.667 26.1443 14.6498 26.1742C14.0698 25.669 13.7773 24.87 13.7664 24.1678C13.7696 23.8589 13.8191 23.5588 13.8831 23.2553C13.8914 23.2159 13.8998 23.1764 13.9083 23.1357C13.9875 22.7969 13.9875 22.7969 14.145 22.6562H14.145Z"
       fill="#F9F0D8"
       id="path2572"
       style="fill:#000000" />
    <path
       d="M20.9604 18.4346C20.9271 18.5072 20.8937 18.5797 20.8594 18.6545C20.6331 18.663 20.4067 18.6708 20.1803 18.6781C20.1033 18.6807 20.0263 18.6834 19.9494 18.6863C19.8386 18.6904 19.7278 18.694 19.617 18.6974C19.5656 18.6995 19.5656 18.6995 19.5131 18.7017C19.3286 18.7068 19.1987 18.6994 19.042 18.6105C19.6777 18.4555 20.3047 18.4213 20.9604 18.4346V18.4346Z"
       fill="#F9F5EB"
       id="path2574"
       style="fill:#000000" />
    <path
       d="M14.145 22.6562C14.2021 22.8055 14.1871 22.8583 14.147 23.0087C14.1357 23.0525 14.1243 23.0964 14.1127 23.1416C14.0943 23.2115 14.0943 23.2115 14.0756 23.2828C13.9721 23.6921 13.9011 24.0839 13.8926 24.5031C13.8759 24.5031 13.8593 24.5031 13.8421 24.5031C13.7977 23.3158 13.7977 23.3158 14.044 22.7441C14.0773 22.7151 14.1107 22.6861 14.145 22.6562H14.145Z"
       fill="#FAF8F0"
       id="path2576"
       style="fill:#000000" />
    <path
       d="M26.1097 15.3564C26.1097 15.3709 26.1097 15.3854 26.1097 15.4003C26.3846 15.4221 26.3846 15.4221 26.665 15.4443C26.665 15.4588 26.665 15.4733 26.665 15.4883C26.6348 15.4887 26.6046 15.4891 26.5735 15.4896C25.6574 15.4615 25.6574 15.4615 24.8476 15.7522C24.7466 15.754 24.6456 15.754 24.5447 15.7522C24.8848 15.4559 25.6449 15.3444 26.1097 15.3564V15.3564Z"
       fill="#F9F1DA"
       id="path2578"
       style="fill:#000000" />
    <path
       d="M19.6983 18.5226C19.6983 18.5371 19.6983 18.5516 19.6983 18.5665C20.0815 18.581 20.4646 18.5955 20.8594 18.6105C20.8594 18.625 20.8594 18.6395 20.8594 18.6545C20.6331 18.6629 20.4067 18.6708 20.1803 18.6781C20.1033 18.6806 20.0263 18.6834 19.9494 18.6863C19.8386 18.6904 19.7278 18.694 19.617 18.6974C19.5656 18.6995 19.5656 18.6995 19.5131 18.7017C19.3286 18.7068 19.1987 18.6994 19.042 18.6105C19.4675 18.51 19.4675 18.51 19.6983 18.5226Z"
       fill="#F9EDC3"
       id="path2580"
       style="fill:#000000" />
    <path
       d="M48.5751 14.8727C48.692 15.0253 48.7493 15.1804 48.8117 15.3536C48.8298 15.4009 48.8298 15.4009 48.8481 15.449C48.9077 15.6132 48.9376 15.72 48.878 15.8841C48.8172 15.7488 48.7575 15.6131 48.6982 15.4773C48.6809 15.4389 48.6636 15.4006 48.6458 15.361C48.6216 15.3053 48.6216 15.3053 48.597 15.2485C48.5819 15.2144 48.5669 15.1803 48.5513 15.1452C48.5215 15.0371 48.5341 14.9766 48.5751 14.8727H48.5751Z"
       fill="#E5B85D"
       id="path2582" />
    <path
       d="M26.0817 15.147C25.7346 15.1454 25.3853 15.1924 25.081 15.2731L24.9485 15.3124C24.7198 15.3712 24.5036 15.4432 24.2875 15.5314C22.9785 16.0845 21.5639 17.0324 21.0503 18.2752L21.0107 18.3906L20.8593 18.3467C20.7787 18.3227 20.6976 18.3 20.6163 18.278C19.4842 18.0142 18.1518 18.4862 17.1631 18.9622L17.073 19.0063C16.5057 19.2836 15.8617 19.6432 15.3941 20.0714L15.407 20.0507C15.407 20.0507 13.712 21.5549 13.4077 22.6316C13.3646 22.725 13.3226 22.8188 13.2845 22.9137L13.2362 23.052C13.047 23.5929 12.9525 24.1433 13.0555 24.7077C13.3299 25.6783 13.8809 26.5189 14.8337 27.1047C16.696 28.1691 19.6766 28.3455 21.8389 27.9974C22.1047 27.9687 22.6847 27.883 22.8768 27.8542L22.9693 27.9194C23.0223 27.9611 23.0752 28.0028 23.1312 28.0412L23.232 28.1091C23.9528 28.6262 24.7955 28.8721 25.6965 29.0459L25.8572 29.0765C26.7256 29.2516 27.558 29.3147 28.4471 29.3158L28.6054 29.3156C29.1876 29.3158 29.7613 29.3101 30.3377 29.2328L30.5017 29.2084C31.6423 29.0461 32.757 28.75 33.7854 28.2862L33.8841 28.241C35.1174 27.6812 36.1603 26.9067 36.7206 25.7779C37.1362 24.8932 37.0077 23.9978 36.5945 23.1332C35.7896 21.6812 34.4734 20.774 32.7628 20.1965L32.622 20.1496C32.665 19.9009 32.6802 19.6583 32.6819 19.4068L32.682 19.2674C32.6834 19.1613 32.6835 19.0582 32.6795 18.9553C32.6715 18.9004 32.6633 18.8441 32.6563 18.8003C32.5486 18.4645 32.4177 18.1606 32.37 18.0528C31.8956 17.2114 31.1879 16.5209 30.195 16.079L30.0473 16.016C29.6 15.8157 29.1687 15.6602 28.6762 15.5664L28.4823 15.5323C28.1809 15.479 27.8881 15.4557 27.5913 15.447C27.4926 15.4387 27.3995 15.4347 27.3128 15.4349C27.2423 15.435 27.1792 15.4394 27.1164 15.444C27.1004 15.4442 27.0848 15.4439 27.0688 15.4443V15.4462C26.5287 15.4951 26.2919 15.6877 26.2768 15.7004C26.2709 15.7038 26.2672 15.7045 26.261 15.7081C26.4091 15.7072 26.5573 15.7065 26.7054 15.706L26.8889 15.7054C27.1607 15.7036 27.4324 15.7006 27.7038 15.715C29.0798 15.8319 30.4978 16.5511 31.3757 17.4643C32.0772 18.2675 32.2087 19.0434 32.0667 20.0176C31.8204 19.9498 31.5787 19.9071 31.3231 19.8751L31.18 19.8582C31.1431 19.8539 31.1032 19.8489 31.0653 19.8441C30.7104 19.8384 29.6347 19.8461 28.9633 20.1272L28.9694 20.127C28.9585 20.1352 28.9477 20.1399 28.9366 20.1495C29.1361 20.1477 29.3356 20.1462 29.5351 20.1453C29.6175 20.1449 29.6999 20.1445 29.7822 20.1441C30.2578 20.1396 30.7177 20.1354 31.1868 20.215L31.25 20.2266C31.3149 20.2363 31.3847 20.247 31.4789 20.2636L31.49 20.2653L31.6249 20.287C31.6704 20.2943 31.7159 20.3016 31.7614 20.3089C32.3869 20.5148 33.0863 20.8072 33.1591 20.8379C34.2292 21.3211 35.1696 22.0509 35.7616 22.9543C36.2268 23.695 36.4278 24.5563 36.1639 25.3836C35.7892 26.3803 34.9296 27.0938 33.8923 27.5945L33.7326 27.6693C32.8643 28.0959 31.8453 28.4414 30.8564 28.5701C30.7457 28.5822 30.6354 28.5951 30.5251 28.61C29.7417 28.7171 28.9733 28.7443 28.1809 28.7283L28.0279 28.7247C27.1208 28.7045 26.1609 28.6033 25.2829 28.3483C25.1546 28.3354 25.0228 28.3114 24.8867 28.2714C23.9438 27.9948 23.396 27.4634 23.0946 27.0459C23.0608 27.0118 23.0283 26.9748 22.9971 26.9277L22.929 26.7898C22.9289 26.7895 22.9288 26.7892 22.9287 26.789C22.8142 26.5882 22.7702 26.4517 22.7702 26.4517L22.7741 26.4499C22.6941 26.2639 22.624 26.0751 22.59 25.877C22.4569 24.5581 22.8677 23.3418 23.7855 22.2865L23.8882 22.1724C24.0831 21.9535 24.2731 21.7317 24.5161 21.5513C24.5483 21.5289 24.5781 21.5046 24.6095 21.482C25.2063 20.8888 25.9245 20.5093 26.4943 20.2779L26.4983 20.2715C26.509 20.2681 26.5215 20.2659 26.5323 20.263C27.0809 20.044 27.4831 19.963 27.4831 19.963L27.4843 19.9717C28.1934 19.7818 28.8972 19.7041 29.6803 19.6704L29.7948 19.6659V19.6219C28.7293 19.3519 27.8492 19.4626 26.8226 19.8088C26.6497 19.8699 26.4808 19.9259 26.299 19.9648C26.1481 19.9865 26.1481 19.9865 25.9991 19.8857C24.7611 19.0348 23.1478 18.5627 21.5742 18.6043L21.4392 18.6095C21.4377 18.6007 21.4367 18.5882 21.435 18.5686C21.6883 17.9998 22.0341 17.4826 22.5164 17.0348C23.7905 15.927 25.1564 15.3739 26.9672 15.3568L27.0463 15.3564C27.0154 15.3404 26.9102 15.287 26.7423 15.2158C26.5316 15.1697 26.3071 15.148 26.0816 15.1469L26.0817 15.147ZM20.7546 18.4309C20.8229 18.4312 20.8914 18.4324 20.9602 18.4346L20.9287 18.539C20.8706 18.6649 20.8706 18.6649 20.7232 18.7064L20.5564 18.7424L20.3832 18.7895L20.0212 18.886L20.0073 18.8854L19.9776 18.8976L19.9001 18.9183L19.9315 18.9167L19.7549 18.9898C19.7549 18.9898 20.8527 18.9003 21.6348 18.8693C21.7127 18.87 21.7905 18.8711 21.8689 18.8744C23.1229 18.986 24.7913 19.4807 25.6552 20.3255C23.9719 21.2169 22.7238 22.5577 22.0279 24.1661C21.692 25.0995 21.7369 26.0275 22.202 26.9192C22.2636 27.0362 22.3202 27.1537 22.3738 27.2736C21.3169 27.5235 21.3168 27.5235 20.2097 27.5085L20.0673 27.5072C18.6629 27.4993 17.2145 27.4849 15.9179 26.9486L15.7604 26.8778C15.449 26.7444 15.1549 26.6051 14.8887 26.4094C14.225 25.8861 13.8324 25.124 13.771 24.3472C13.7154 22.9995 14.3481 21.6877 15.3606 20.6852C16.7279 19.3789 18.5185 18.4819 20.5506 18.433C20.6184 18.4314 20.6864 18.4307 20.7546 18.431L20.7546 18.4309Z"
       fill="#DEA731"
       id="path2584"
       style="fill:#ffffff" />
    <path
       d="M1.01907 27.6693C1.144 27.8326 1.17999 27.9832 1.23047 28.1723C1.24487 28.2227 1.24487 28.2227 1.25956 28.2741C1.26838 28.3066 1.2772 28.3392 1.28628 28.3728C1.29841 28.4171 1.29841 28.4171 1.31077 28.4623C1.32348 28.5604 1.30493 28.6311 1.27149 28.7247C1.21898 28.5903 1.16782 28.4556 1.11689 28.3207C1.10202 28.2827 1.08715 28.2447 1.07182 28.2055C1.058 28.1686 1.04417 28.1316 1.02992 28.0935C1.01696 28.0596 1.00401 28.0258 0.990663 27.9909C0.964786 27.8717 0.984213 27.7858 1.01907 27.6693H1.01907Z"
       fill="#E9C57E"
       id="path2586" />
    <path
       d="M14.145 22.6562C14.2005 22.8012 14.189 22.8499 14.1482 22.9942C14.1335 23.0476 14.1335 23.0476 14.1184 23.1019C14.1106 23.129 14.1027 23.156 14.0946 23.1839C14.0446 23.1839 13.9946 23.1839 13.9431 23.1839C13.9792 22.807 13.9792 22.807 14.1451 22.6562H14.145Z"
       fill="#F9F3E2"
       id="path2588"
       style="fill:#000000" />
    <path
       d="M0.918106 27.1416C0.934766 27.1416 0.951425 27.1416 0.96859 27.1416C1.02946 27.3471 1.02381 27.5469 1.01907 27.7573C0.985755 27.7428 0.952435 27.7283 0.918106 27.7133C0.886159 27.6224 0.886159 27.6224 0.861312 27.5127C0.852852 27.4763 0.844392 27.44 0.835675 27.4026C0.829559 27.3745 0.823441 27.3464 0.817139 27.3175C0.850458 27.3175 0.883777 27.3175 0.918107 27.3175C0.918107 27.2595 0.918107 27.2014 0.918106 27.1416V27.1416Z"
       fill="#E3B555"
       id="path2590" />
    <path
       d="M33.4865 21.8317C33.3761 21.8317 33.2702 21.8699 33.192 21.9379C33.1139 22.006 33.0701 22.0982 33.0701 22.1945C33.0701 22.2421 33.0808 22.2893 33.1018 22.3333C33.1227 22.3773 33.1534 22.4173 33.192 22.451C33.2307 22.4847 33.2766 22.5114 33.3272 22.5296C33.3777 22.5479 33.4319 22.5573 33.4865 22.5573C33.5412 22.5573 33.5954 22.5479 33.6459 22.5296C33.6965 22.5114 33.7424 22.4847 33.7811 22.451C33.8197 22.4173 33.8504 22.3773 33.8713 22.3333C33.8923 22.2893 33.903 22.2421 33.903 22.1945C33.903 22.1468 33.8923 22.0996 33.8713 22.0556C33.8504 22.0116 33.8197 21.9716 33.7811 21.9379C33.7424 21.9042 33.6965 21.8775 33.6459 21.8593C33.5954 21.841 33.5412 21.8317 33.4865 21.8317ZM32.7198 22.2604C32.673 22.2604 32.6266 22.2685 32.5834 22.2841C32.5401 22.2997 32.5008 22.3225 32.4677 22.3514C32.4346 22.3802 32.4083 22.4145 32.3904 22.4521C32.3725 22.4898 32.3633 22.5302 32.3633 22.571C32.3633 22.6118 32.3725 22.6522 32.3904 22.6898C32.4083 22.7275 32.4346 22.7618 32.4677 22.7906C32.5008 22.8194 32.5401 22.8423 32.5834 22.8579C32.6266 22.8735 32.673 22.8816 32.7198 22.8816C32.8144 22.8816 32.9051 22.8488 32.9719 22.7906C33.0388 22.7324 33.0764 22.6534 33.0764 22.571C33.0764 22.5302 33.0671 22.4898 33.0492 22.4521C33.0313 22.4145 33.005 22.3802 32.9719 22.3514C32.9388 22.3225 32.8995 22.2997 32.8563 22.2841C32.813 22.2685 32.7666 22.2604 32.7198 22.2604ZM33.2026 22.7277C33.1694 22.7277 33.1366 22.7333 33.106 22.7444C33.0754 22.7554 33.0475 22.7716 33.0241 22.7921C33.0006 22.8125 32.9821 22.8367 32.9694 22.8634C32.9567 22.8901 32.9502 22.9187 32.9502 22.9475C32.9502 23.0058 32.9768 23.0618 33.0241 23.103C33.0714 23.1442 33.1356 23.1674 33.2026 23.1674C33.2695 23.1674 33.3337 23.1442 33.3811 23.103C33.4284 23.0618 33.455 23.0058 33.455 22.9475C33.455 22.8892 33.4284 22.8333 33.3811 22.7921C33.3337 22.7508 33.2695 22.7277 33.2026 22.7277Z"
       fill="#FCFCF8"
       id="path2592" />
    <path
       d="M29.7097 18.1543C29.823 18.1543 29.9148 18.0743 29.9148 17.9756C29.9148 17.877 29.823 17.797 29.7097 17.797C29.5965 17.797 29.5046 17.877 29.5046 17.9756C29.5046 18.0743 29.5965 18.1543 29.7097 18.1543Z"
       fill="#FCFCF8"
       id="path2594" />
    <path
       d="M29.6909 18.146C29.8042 18.146 29.896 18.066 29.896 17.9674C29.896 17.8687 29.8042 17.7887 29.6909 17.7887C29.5777 17.7887 29.4858 17.8687 29.4858 17.9674C29.4858 18.066 29.5777 18.146 29.6909 18.146Z"
       fill="#FCFCF8"
       id="path2596" />
    <path
       d="M29.3043 17.9152C29.448 17.9152 29.5646 17.8136 29.5646 17.6884C29.5646 17.5632 29.448 17.4617 29.3043 17.4617C29.1605 17.4617 29.0439 17.5632 29.0439 17.6884C29.0439 17.8136 29.1605 17.9152 29.3043 17.9152Z"
       fill="#FCFCF8"
       id="path2598" />
    <path
       d="M16.6273 22.0538C16.7538 22.0538 16.8563 21.9645 16.8563 21.8543C16.8563 21.7441 16.7538 21.6547 16.6273 21.6547C16.5008 21.6547 16.3982 21.7441 16.3982 21.8543C16.3982 21.9645 16.5008 22.0538 16.6273 22.0538Z"
       fill="#FCFCF8"
       id="path2600" />
  </g>
  <defs
     id="defs2607">
    <clipPath
       id="clip0_60_311">
      <rect
         width="50"
         height="30"
         fill="white"
         id="rect2604" />
    </clipPath>
  </defs>
</svg>
