<?xml version="1.0" encoding="UTF-8" standalone="no"?>
<svg
   viewBox="2 2 20 20"
   version="1.1"
   id="svg192"
   sodipodi:docname="logomarcas__linkedin--on.svg"
   inkscape:version="1.2 (dc2aedaf03, 2022-05-15)"
   xmlns:inkscape="http://www.inkscape.org/namespaces/inkscape"
   xmlns:sodipodi="http://sodipodi.sourceforge.net/DTD/sodipodi-0.dtd"
   xmlns="http://www.w3.org/2000/svg"
   xmlns:svg="http://www.w3.org/2000/svg">
  <defs
     id="defs196" />
  <sodipodi:namedview
     id="namedview194"
     pagecolor="#ffffff"
     bordercolor="#000000"
     borderopacity="0.25"
     inkscape:showpageshadow="2"
     inkscape:pageopacity="0.0"
     inkscape:pagecheckerboard="0"
     inkscape:deskcolor="#d1d1d1"
     showgrid="false"
     inkscape:zoom="16"
     inkscape:cx="3.75"
     inkscape:cy="9.4375"
     inkscape:window-width="1366"
     inkscape:window-height="705"
     inkscape:window-x="-8"
     inkscape:window-y="-8"
     inkscape:window-maximized="1"
     inkscape:current-layer="svg192" />
  <g
     id="g9791">
    <path
       id="rect7605"
       style="fill:#ffffff;stroke-width:1.20652"
       d="m 3.875,4.4375 h 16.437 v 15.625 H 3.875 Z" />
  </g>
  <path
     d="M 20.5,2 H 3.5 A 1.5,1.5 0 0 0 2,3.5 v 17 A 1.5,1.5 0 0 0 3.5,22 h 17 A 1.5,1.5 0 0 0 22,20.5 V 3.5 A 1.5,1.5 0 0 0 20.5,2 Z M 8,19 H 5 V 10 H 8 Z M 6.5,8.25 A 1.75,1.75 0 1 1 8.3,6.5 1.78,1.78 0 0 1 6.5,8.25 Z M 19,19 h -3 v -4.74 c 0,-1.42 -0.6,-1.93 -1.38,-1.93 A 1.74,1.74 0 0 0 13,14.19 0.66,0.66 0 0 0 13,14.33 V 19 h -3 v -9 h 2.9 v 1.3 a 3.11,3.11 0 0 1 2.7,-1.4 c 1.55,0 3.36,0.86 3.36,3.66 z"
     fill="#000000"
     id="path190"
     style="fill:#966e00;fill-opacity:1" />
</svg>
