<?xml version="1.0" encoding="UTF-8" standalone="no"?>
<!-- Created with Inkscape (http://www.inkscape.org/) -->

<svg
   width="20mm"
   height="20mm"
   viewBox="0 0 20 20"
   version="1.1"
   id="svg2318"
   xml:space="preserve"
   inkscape:version="1.2 (dc2aedaf03, 2022-05-15)"
   sodipodi:docname="logomarcas__alura.svg"
   xmlns:inkscape="http://www.inkscape.org/namespaces/inkscape"
   xmlns:sodipodi="http://sodipodi.sourceforge.net/DTD/sodipodi-0.dtd"
   xmlns:xlink="http://www.w3.org/1999/xlink"
   xmlns="http://www.w3.org/2000/svg"
   xmlns:svg="http://www.w3.org/2000/svg"><sodipodi:namedview
     id="namedview2320"
     pagecolor="#ffffff"
     bordercolor="#000000"
     borderopacity="0.25"
     inkscape:showpageshadow="2"
     inkscape:pageopacity="0.0"
     inkscape:pagecheckerboard="0"
     inkscape:deskcolor="#d1d1d1"
     inkscape:document-units="mm"
     showgrid="false"
     inkscape:zoom="5.6568543"
     inkscape:cx="14.142136"
     inkscape:cy="44.017397"
     inkscape:window-width="1366"
     inkscape:window-height="705"
     inkscape:window-x="-8"
     inkscape:window-y="-8"
     inkscape:window-maximized="1"
     inkscape:current-layer="layer1" /><defs
     id="defs2315"><linearGradient
       inkscape:collect="always"
       id="linearGradient1101"><stop
         style="stop-color:#1261c0;stop-opacity:1;"
         offset="0"
         id="stop1097" /><stop
         style="stop-color:#051932;stop-opacity:1;"
         offset="1"
         id="stop1099" /></linearGradient><inkscape:path-effect
       effect="fillet_chamfer"
       id="path-effect487"
       is_visible="true"
       lpeversion="1"
       nodesatellites_param="F,0,0,1,0,0,0,1 @ F,0,0,1,0,0,0,1 @ F,0,0,1,0,0,0,1 @ F,0,0,1,0,0,0,1 | F,0,0,1,0,0,0,1 @ F,0,0,1,0,0,0,1 @ F,0,0,1,0,0,0,1 @ F,0,0,1,0,0,0,1 @ F,0,0,1,0,0,0,1 @ F,0,0,1,0,0,0,1 @ F,0,0,1,0,0,0,1 @ F,0,0,1,0,0,0,1 @ F,0,0,1,0,0,0,1 @ F,0,0,1,0,0,0,1 @ F,0,0,1,0,0,0,1 @ F,0,0,1,0,0,0,1 @ F,0,0,1,0,0,0,1 @ F,0,0,1,0,0,0,1 @ F,0,0,1,0,0,0,1 @ F,0,0,1,0,0,0,1 @ F,0,0,1,0,0,0,1 | F,0,0,1,0,0,0,1 @ F,0,0,1,0,0,0,1 @ F,0,0,1,0,0,0,1 @ F,0,0,1,0,0,0,1 @ F,0,0,1,0,0,0,1 @ F,0,0,1,0,0,0,1 @ F,0,0,1,0,0,0,1"
       unit="px"
       method="auto"
       mode="F"
       radius="0"
       chamfer_steps="1"
       flexible="false"
       use_knot_distance="true"
       apply_no_radius="true"
       apply_with_radius="true"
       only_selected="false"
       hide_knots="false" /><inkscape:path-effect
       effect="fillet_chamfer"
       id="path-effect487-0"
       is_visible="true"
       lpeversion="1"
       nodesatellites_param="F,0,0,1,0,0,0,1 @ F,0,0,1,0,0,0,1 @ F,0,0,1,0,0,0,1 @ F,0,0,1,0,0,0,1 | F,0,0,1,0,0,0,1 @ F,0,0,1,0,0,0,1 @ F,0,0,1,0,0,0,1 @ F,0,0,1,0,0,0,1 @ F,0,0,1,0,0,0,1 @ F,0,0,1,0,0,0,1 @ F,0,0,1,0,0,0,1 @ F,0,0,1,0,0,0,1 @ F,0,0,1,0,0,0,1 @ F,0,0,1,0,0,0,1 @ F,0,0,1,0,0,0,1 @ F,0,0,1,0,0,0,1 @ F,0,0,1,0,0,0,1 @ F,0,0,1,0,0,0,1 @ F,0,0,1,0,0,0,1 @ F,0,0,1,0,0,0,1 @ F,0,0,1,0,0,0,1 | F,0,0,1,0,0,0,1 @ F,0,0,1,0,0,0,1 @ F,0,0,1,0,0,0,1 @ F,0,0,1,0,0,0,1 @ F,0,0,1,0,0,0,1 @ F,0,0,1,0,0,0,1 @ F,0,0,1,0,0,0,1"
       unit="px"
       method="auto"
       mode="F"
       radius="0"
       chamfer_steps="1"
       flexible="false"
       use_knot_distance="true"
       apply_no_radius="true"
       apply_with_radius="true"
       only_selected="false"
       hide_knots="false" /><radialGradient
       inkscape:collect="always"
       xlink:href="#linearGradient1101"
       id="radialGradient1105"
       cx="-3.0051124"
       cy="30.509586"
       fx="-3.0051124"
       fy="30.509586"
       r="10.944687"
       gradientTransform="matrix(1,0,0,1.0341881,-23.395326,-11.154613)"
       gradientUnits="userSpaceOnUse" /></defs><g
     inkscape:label="Camada 1"
     inkscape:groupmode="layer"
     id="layer1"><g
       id="g4901"
       transform="matrix(0.91368534,0,0,0.88348082,44.111009,-18.008362)"><rect
         style="fill:url(#radialGradient1105);fill-opacity:1;fill-rule:evenodd;stroke-width:0.79375;stroke-linecap:round;stroke-linejoin:round;stroke-miterlimit:10;stroke-dashoffset:74.3552"
         id="rect538"
         width="21.889374"
         height="22.63773"
         x="-48.278118"
         y="20.383421"
         rx="2" /><path
         id="rect19041-6"
         style="fill:#ffffff;fill-opacity:1;fill-rule:evenodd;stroke-width:0.247668;stroke-linecap:round;stroke-linejoin:round;stroke-miterlimit:10;stroke-dashoffset:74.3552"
         d="m -37.57458,24.846254 c -1.260419,0.0096 -2.566246,0.303906 -3.329512,1.114144 -0.702912,0.746132 -0.711068,1.618128 -0.711068,2.57762 h 1.511019 c 0.157991,0 0.458319,0.05851 0.592728,-0.04444 0.139541,-0.10688 0.108552,-0.338166 0.148312,-0.488859 0.0685,-0.259546 0.22305,-0.522614 0.414445,-0.711068 0.871199,-0.857759 3.219366,-0.713169 3.704166,0.533301 0.793066,2.03935 -1.681822,2.585506 -3.081465,3.05201 -0.648278,0.216088 -1.482863,0.40973 -2.044837,0.799952 -1.426166,0.9904 -1.587993,3.549879 -0.947745,5.036901 0.298542,0.693333 0.920722,1.050641 1.56993,1.348239 1.715111,0.786043 4.607742,0.68528 6.029606,-0.666626 0.812717,-0.772801 0.726054,-1.878453 0.726054,-2.903699 v -5.333008 c 0,-1.322087 0.08966,-2.414489 -0.977719,-3.378088 -0.432801,-0.390693 -0.960797,-0.558535 -1.511018,-0.696082 -0.596533,-0.149133 -1.336644,-0.246076 -2.092896,-0.240295 z m 2.359546,6.892086 c 0.245689,0.337866 0.195854,1.244076 0.195854,1.688786 0,0.813245 0.102705,1.991323 -0.49196,2.652035 -0.565154,0.627998 -1.628442,0.541286 -2.370398,0.458886 -0.378665,-0.04204 -0.769527,-0.100312 -1.067118,-0.370003 -0.66767,-0.605065 -0.612281,-1.99808 -0.05891,-2.652034 0.584539,-0.690847 1.899445,-0.880017 2.725931,-1.155486 0.401957,-0.133953 0.839047,-0.26023 1.066602,-0.622184 z" /></g></g></svg>
