<?xml version="1.0" encoding="UTF-8" standalone="no"?>
<!-- Created with Inkscape (http://www.inkscape.org/) -->

<svg
   width="20mm"
   height="20mm"
   viewBox="0 0 20 20"
   version="1.1"
   id="svg4919"
   xml:space="preserve"
   inkscape:version="1.2 (dc2aedaf03, 2022-05-15)"
   sodipodi:docname="logomarcas__github.svg"
   xmlns:inkscape="http://www.inkscape.org/namespaces/inkscape"
   xmlns:sodipodi="http://sodipodi.sourceforge.net/DTD/sodipodi-0.dtd"
   xmlns="http://www.w3.org/2000/svg"
   xmlns:svg="http://www.w3.org/2000/svg"><sodipodi:namedview
     id="namedview4921"
     pagecolor="#ffffff"
     bordercolor="#000000"
     borderopacity="0.25"
     inkscape:showpageshadow="2"
     inkscape:pageopacity="0.0"
     inkscape:pagecheckerboard="0"
     inkscape:deskcolor="#d1d1d1"
     inkscape:document-units="mm"
     showgrid="false"
     inkscape:zoom="2.8284271"
     inkscape:cx="32.880465"
     inkscape:cy="49.497475"
     inkscape:window-width="1366"
     inkscape:window-height="705"
     inkscape:window-x="-8"
     inkscape:window-y="-8"
     inkscape:window-maximized="1"
     inkscape:current-layer="layer1" /><defs
     id="defs4916" /><g
     inkscape:label="Camada 1"
     inkscape:groupmode="layer"
     id="layer1"><g
       id="g5167"
       transform="scale(1,0.99989944)"><path
         id="path5106"
         style="fill:#ffffff;fill-rule:evenodd;stroke-width:0.762283;stroke-linecap:round;stroke-linejoin:round;stroke-miterlimit:10;stroke-dashoffset:74.3552"
         d="M 9.2986572,1.4324707 A 8.3629742,8.6640139 0 0 0 0.93534342,10.096541 8.3629742,8.6640139 0 0 0 6.9458293,18.407145 v 1.592668 H 12.995589 V 17.865059 A 8.3629742,8.6640139 0 0 0 17.661454,10.096541 8.3629742,8.6640139 0 0 0 9.2986572,1.4324707 Z" /><path
         style="fill:#000000;stroke-width:0.0396175"
         d="M 6.8683906,19.990506 C 6.6781426,19.952516 5.8639226,19.605684 5.4054416,19.367336 3.0004336,18.117054 1.1006376,15.744919 0.3573806,13.064192 0.0997356,12.134936 9.3659785e-4,11.353698 1.0597847e-5,10.238337 -7.2940215e-4,9.3229353 0.0370206,8.914885 0.1960876,8.1202298 0.9367056,4.420242 3.7418846,1.3621011 7.3146136,0.35978282 c 2.041745,-0.57280535 4.3772924,-0.45673865 6.3007444,0.31311965 2.342432,0.93755453 4.22708,2.69612573 5.354471,4.99627403 0.515148,1.051024 0.826876,2.1047478 0.984117,3.3265856 0.06174,0.4797287 0.06132,1.9819789 -7.4e-4,2.4851489 -0.195886,1.589438 -0.709197,3.038048 -1.531641,4.322429 -1.187395,1.854315 -2.797941,3.206632 -4.759378,3.99629 -0.625443,0.251798 -0.823356,0.261499 -1.008808,0.06875 l -0.126761,-0.131751 -0.02373,-1.813061 c -0.02539,-1.940562 -0.03519,-2.042155 -0.243027,-2.51989 -0.05146,-0.118293 -0.165611,-0.307862 -0.253662,-0.421261 l -0.160093,-0.20618 0.320675,-0.04594 c 1.025122,-0.146871 1.823698,-0.434475 2.512735,-0.904952 0.837944,-0.572152 1.354265,-1.460087 1.607976,-2.765298 0.08349,-0.429507 0.119533,-1.6352242 0.06044,-2.0216548 C 16.247178,8.3795575 15.928755,7.6490363 15.529637,7.1610673 L 15.3724,6.9688249 15.468657,6.6294898 c 0.1709,-0.6024641 0.125339,-1.4473049 -0.115053,-2.1334841 -0.07629,-0.2177476 -0.100864,-0.2492869 -0.218473,-0.2803225 -0.363875,-0.096021 -1.39654,0.2913903 -2.291851,0.8598039 -0.22303,0.141597 -0.342411,0.1940356 -0.413069,0.1814444 -0.05466,-0.00974 -0.278034,-0.056252 -0.496387,-0.103359 -1.248999,-0.2694583 -2.6167444,-0.2694583 -3.8657444,0 -0.218352,0.047107 -0.442777,0.093777 -0.498721,0.1037097 -0.07332,0.01302 -0.179265,-0.032822 -0.379533,-0.1642247 -0.79842,-0.5238697 -1.928879,-0.9474339 -2.344407,-0.8784096 -0.126188,0.020962 -0.135229,0.034734 -0.228686,0.3483719 -0.151554,0.5086121 -0.189943,0.7686282 -0.186942,1.26618 0.0022,0.3694331 0.02226,0.5280846 0.100897,0.7990558 l 0.09812,0.338101 -0.150727,0.1829787 c -0.395492,0.4801203 -0.723692,1.232431 -0.824108,1.8890499 -0.05918,0.3869835 -0.02299,1.5929548 0.06065,2.0212378 0.200607,1.027173 0.589726,1.844293 1.13218,2.377495 0.407726,0.400773 1.065253,0.789742 1.708282,1.010563 0.279475,0.09597 1.026985,0.258228 1.379107,0.29935 l 0.223957,0.02615 -0.152492,0.197477 c -0.1981,0.256538 -0.341246,0.570436 -0.417259,0.914986 -0.0595,0.269721 -0.06516,0.278257 -0.224128,0.338524 -0.350573,0.132907 -0.533874,0.162355 -1.024552,0.164592 -0.50268,0.0023 -0.512365,6.06e-4 -0.774054,-0.133799 -0.338892,-0.174072 -0.63196,-0.463541 -0.900241,-0.889186 -0.388597,-0.616538 -0.978947,-1.050905 -1.501412,-1.104705 -0.300589,-0.03095 -0.524686,0.03529 -0.524686,0.15511 0,0.09127 0.314615,0.417284 0.591817,0.613253 0.09446,0.06678 0.265171,0.247157 0.379345,0.40083 0.186207,0.250628 0.280044,0.427456 0.623695,1.175321 0.188396,0.409991 0.661845,0.787423 1.185332,0.94494 0.118452,0.03564 0.462059,0.08504 0.763574,0.109764 0.44789,0.03673 0.618069,0.03441 0.929992,-0.01269 l 0.381787,-0.05766 0.0097,0.703274 c 0.0194,1.413843 0.01079,1.489604 -0.184094,1.620316 -0.103053,0.06912 -0.312681,0.104815 -0.452077,0.07698 z"
         id="path5052"
         sodipodi:nodetypes="sssccsssscsssccsscssscscscssssscssscscsscscccscsccsssssssscccsss" /></g></g></svg>
