<?xml version="1.0" encoding="UTF-8" standalone="no"?>
<svg
   width="50"
   height="30"
   viewBox="0 0 50 30"
   fill="none"
   version="1.1"
   id="svg2609"
   sodipodi:docname="logomarcas__dellabianca--footer.svg"
   inkscape:version="1.2 (dc2aedaf03, 2022-05-15)"
   xmlns:inkscape="http://www.inkscape.org/namespaces/inkscape"
   xmlns:sodipodi="http://sodipodi.sourceforge.net/DTD/sodipodi-0.dtd"
   xmlns="http://www.w3.org/2000/svg"
   xmlns:svg="http://www.w3.org/2000/svg">
  <sodipodi:namedview
     id="namedview2611"
     pagecolor="#444444"
     bordercolor="#000000"
     borderopacity="0.25"
     inkscape:showpageshadow="2"
     inkscape:pageopacity="0"
     inkscape:pagecheckerboard="0"
     inkscape:deskcolor="#d1d1d1"
     showgrid="false"
     inkscape:zoom="11.313709"
     inkscape:cx="21.831922"
     inkscape:cy="20.240932"
     inkscape:window-width="1366"
     inkscape:window-height="705"
     inkscape:window-x="-8"
     inkscape:window-y="-8"
     inkscape:window-maximized="1"
     inkscape:current-layer="g2602" />
  <g
     clip-path="url(#clip0_60_311)"
     id="g2602">
    <path
       d="M25.1389 0.00125198C22.8419 -0.0199122 20.5489 0.226935 18.3257 0.765916L18.1837 0.800702C16.5604 1.19714 14.9393 1.71642 13.4613 2.42983C13.3679 2.4758 13.2744 2.52165 13.1804 2.56665C12.0379 3.11046 10.9542 3.71157 9.90571 4.38465L9.80336 4.45061C9.37636 4.72531 8.97067 5.0174 8.57183 5.32238C8.51123 5.36901 8.45056 5.41556 8.38981 5.46204C8.12396 5.6602 7.87 5.86531 7.6222 6.0806L7.49372 6.19312C6.91461 6.6995 6.3616 7.21921 5.83298 7.76582L5.76465 7.83668C5.65201 7.95331 5.54044 8.07049 5.43039 8.18899L5.31029 8.3204C2.48127 11.411 0.588409 15.2716 0.140221 19.2164C0.125941 19.3489 0.111534 19.4812 0.0946673 19.6135C0.00761041 20.29 0.000857133 20.965 9.82959e-06 21.645V21.7987C-0.00241182 24.1756 0.442677 26.4602 1.27157 28.7247C1.33048 28.5606 1.30151 28.449 1.24959 28.2834C1.06406 27.7054 0.935776 27.1188 0.832403 26.5256L0.817219 26.438C0.493463 24.5852 0.46708 22.6139 0.734295 20.7533C0.747642 20.6654 0.760953 20.5775 0.774031 20.4896C0.882013 19.763 1.03076 19.0557 1.2343 18.3449L1.27157 18.2147C1.66416 16.8223 2.16491 15.45 2.89298 14.16C2.94106 14.0758 2.98881 13.9916 3.03536 13.9068C3.44488 13.1563 3.94998 12.4694 4.5199 11.8039L4.60352 11.7065C4.972 11.2742 5.35202 10.8554 5.7611 10.4516C5.81285 10.4009 5.86451 10.3501 5.9161 10.2993C6.11992 10.0934 6.32628 9.89255 6.54665 9.69994L6.64496 9.61491C7.24257 9.09691 7.85374 8.59298 8.50113 8.12226L8.59175 8.05655C9.61597 7.30928 10.7074 6.62967 11.8637 6.04539L11.9742 5.98973C12.5863 5.67914 13.199 5.37646 13.8441 5.12054C13.9741 5.06959 14.1041 5.01846 14.2335 4.96637C16.1788 4.18342 18.2929 3.5781 20.4218 3.33406C20.5403 3.32085 20.6585 3.30713 20.7766 3.29155C22.7513 3.02148 24.7352 2.95348 26.7268 3.11917L26.8669 3.13137C27.0807 3.14989 27.2939 3.1706 27.5071 3.19424C27.6286 3.2083 27.7502 3.22201 27.8719 3.23529C27.9788 3.24688 28.0858 3.25858 28.1927 3.27033L28.3531 3.28803L28.5084 3.30495L28.6526 3.32118C28.7307 3.32985 28.8087 3.33957 28.8863 3.35124C28.9873 3.39521 28.9873 3.39521 29.1797 3.42407C30.3252 3.58475 31.4798 3.83621 32.5675 4.19002C32.707 4.23624 32.8466 4.28188 32.9868 4.3265C35.8132 5.22266 38.4609 6.54206 40.7486 8.24859C40.7996 8.28723 40.8505 8.32581 40.9015 8.36437C41.2307 8.60647 41.5368 8.86687 41.8407 9.13256L41.9238 9.20539C42.3037 9.53722 42.6839 9.86836 43.0447 10.2161L43.1733 10.3432C43.5541 10.7194 43.9195 11.1046 44.2706 11.5021L44.3344 11.5745C45.4395 12.8232 46.3818 14.1765 47.137 15.6092L47.212 15.7521C47.5491 16.3904 47.8478 17.0337 48.1035 17.6998L48.1428 17.8025C49.3065 20.8451 49.7324 24.1474 49.2487 27.3364L49.2313 27.4495C49.1379 28.071 49.0253 28.6828 48.8622 29.2937L48.8196 29.4468L48.7807 29.5889C48.7367 29.7446 48.7171 29.8468 48.777 30C49.32 28.593 49.6756 27.1242 49.87 25.6493L49.8876 25.5146C49.9784 24.897 50.0015 24.2875 49.9999 23.665C49.999 23.4917 49.9981 23.3185 49.9979 23.1452C49.9979 22.2192 49.9908 21.2994 49.8438 20.381L49.8276 20.2816C49.553 18.5527 49.0524 16.8724 48.331 15.2618C48.3068 15.2369 48.2823 15.2111 48.2595 15.1911C47.0269 12.6777 45.1359 9.99513 42.9415 8.04006C41.6746 6.94428 40.3002 5.9437 38.8445 5.04359C38.9451 5.08804 39.0442 5.13462 39.1429 5.18152C39.1065 5.15772 39.07 5.13405 39.0336 5.11024C39.0817 5.13747 39.1265 5.16849 39.1743 5.19604C41.0125 6.07535 42.5437 7.3664 43.9866 8.67512C45.6321 10.3578 47.102 12.1986 48.1312 14.2252C48.3794 14.7414 48.6588 15.2694 48.8554 15.8041C48.8465 15.6858 48.8122 15.4445 48.7009 15.08C47.8068 12.7935 46.5717 10.6641 44.9146 8.71634L44.8392 8.62822C44.5449 8.28381 44.237 7.95086 43.9173 7.62419C43.8712 7.57777 43.8251 7.53134 43.7791 7.48488C43.5206 7.21735 43.2438 6.9685 42.9601 6.7215C42.8746 6.64733 42.7892 6.57314 42.704 6.49871C42.2127 6.0691 41.7113 5.64871 41.1838 5.25264L41.1066 5.19544C40.7867 4.95766 40.459 4.72919 40.1257 4.50584L40.0432 4.45061C37.0431 2.42594 33.4447 1.00944 29.7114 0.412657C29.6046 0.395819 29.4978 0.378574 29.3911 0.360953C28.7964 0.247857 28.206 0.178024 27.6005 0.125017L27.4349 0.110846C26.6708 0.0451302 25.9046 0.00830686 25.1389 0.00125198Z"
       fill="#DEA52E"
       id="path2554"
       style="fill:#ffffff" />
    <path
       d="M16.1753 21.7893C16.3602 21.7893 16.5101 21.6588 16.5101 21.4977C16.5101 21.3367 16.3602 21.2061 16.1753 21.2061C15.9905 21.2061 15.8406 21.3367 15.8406 21.4977C15.8406 21.6588 15.9905 21.7893 16.1753 21.7893Z"
       fill="#FCFCF8"
       id="path2556" />
    <path
       d="M16.8437 21.454C17.0791 21.454 17.27 21.2878 17.27 21.0827C17.27 20.8777 17.0791 20.7114 16.8437 20.7114C16.6083 20.7114 16.4175 20.8777 16.4175 21.0827C16.4175 21.2878 16.6083 21.454 16.8437 21.454Z"
       fill="#FCFCF8"
       id="path2558"
       style="fill:#fcfcff;fill-opacity:1" />
    <path
       d="M24.999 8.98001C25.4199 9.34658 25.5597 10.2342 25.5733 10.7225C25.5651 11.0139 25.5045 11.2549 25.4029 11.5306C25.3494 11.6925 25.2974 11.8548 25.2451 12.017C25.2188 12.0982 25.1924 12.1793 25.1659 12.2604C25.1544 12.2956 25.1429 12.3307 25.1311 12.3669C25.1 12.454 25.1 12.454 25.0495 12.542C25.0416 12.6542 25.0365 12.7653 25.0335 12.8776C25.0324 12.9107 25.0314 12.9438 25.0304 12.9778C25.027 13.0836 25.0241 13.1893 25.0211 13.295C25.019 13.3667 25.0167 13.4383 25.0145 13.5099C25.0091 13.6857 25.004 13.8614 24.9991 14.0371C24.6789 13.7666 24.4851 13.4549 24.4658 13.0587C24.4954 12.5728 24.682 12.0985 24.8927 11.6517C25.0757 11.255 25.117 10.867 25.1126 10.4422C25.1124 10.396 25.1123 10.3497 25.1121 10.3021C25.1082 10.0005 25.0843 9.7124 25.0211 9.41547C24.9958 9.26894 24.9957 9.12797 24.9991 8.98001H24.999Z"
       fill="#E0AB3C"
       id="path2560"
       style="fill:#ffffff" />
    <path
       d="M23.7875 5.59396C23.8041 5.59396 23.8208 5.59396 23.838 5.59396C23.8343 5.62299 23.8307 5.65201 23.8269 5.68191C23.7501 6.39594 23.6918 7.11471 23.9894 7.79271C24.3501 8.70713 24.4282 9.55278 24.0399 10.4752C24.0232 10.4752 24.0066 10.4752 23.9894 10.4752C23.9877 10.44 23.9859 10.4049 23.9842 10.3687C23.931 9.36729 23.7566 8.47848 23.356 7.53435C23.1373 7.00928 23.2162 6.57846 23.4846 6.07769C23.5806 5.91377 23.6811 5.75291 23.7875 5.59396H23.7875Z"
       fill="#DFA836"
       id="path2562"
       style="fill:#ffffff" />
    <path
       d="M26.3117 7.00116C26.3677 7.14762 26.3549 7.18803 26.3148 7.33372C26.1797 7.94673 26.2495 8.47826 26.4975 9.0607C26.6635 9.46124 26.7391 9.82797 26.7408 10.2553C26.7411 10.2973 26.7414 10.3393 26.7417 10.3826C26.7361 10.6545 26.6809 10.8826 26.5641 11.1348C26.5474 11.1348 26.5307 11.1348 26.5136 11.1348C26.5085 11.1023 26.5035 11.0698 26.4983 11.0363C26.3766 10.2642 26.2291 9.53937 25.9103 8.80945C25.7404 8.36981 25.7504 7.96908 25.9863 7.55385C26.0103 7.51386 26.0344 7.47387 26.0592 7.43266C26.0833 7.3908 26.1074 7.34894 26.1322 7.30581C26.191 7.20379 26.2509 7.1023 26.3117 7.00116H26.3117Z"
       fill="#DFA835"
       id="path2564"
       style="fill:#ffffff" />
    <path
       d="M20.6974 18.4323C20.0884 18.4345 19.5087 18.4913 18.9136 18.6474C17.0201 19.171 15.3532 20.3363 14.4265 21.8763C14.408 21.9079 14.3901 21.9385 14.3721 21.9691C14.3201 22.0566 14.2777 22.1386 14.2434 22.2213C14.1297 22.3615 13.9197 23.0499 13.9197 23.0499C13.9197 23.0499 13.8738 23.8106 13.9565 23.5704C14.0392 23.3302 14.3609 22.3492 14.3609 22.3492L14.3606 22.3484C14.6909 21.6468 15.2153 20.9866 15.8377 20.4693C15.8801 20.4354 15.9212 20.4025 15.9623 20.3695C16.2324 20.1499 16.5066 19.9365 16.8016 19.7424C16.8424 19.7164 16.882 19.6912 16.9215 19.6659C17.3736 19.3748 17.8525 19.1548 18.3681 18.9617C18.4279 18.9398 18.4279 18.9398 18.4865 18.9184C19.585 18.6557 19.585 18.6556 20.7339 18.655C20.7765 18.6548 20.8179 18.6547 20.8593 18.6545L20.9603 18.4346C20.8719 18.4328 20.7844 18.432 20.6974 18.4323L20.6974 18.4323Z"
       fill="#FAF6EA"
       id="path2566"
       style="fill:#000000" />
    <path
       d="M24.8981 3.96689C25.1713 4.19324 25.2634 4.51593 25.2768 4.83814C25.2639 5.14936 25.155 5.43052 25.0496 5.72588C24.8873 6.23402 24.7822 6.74313 24.6962 7.265C24.4623 7.06127 24.4853 6.67017 24.4753 6.3965C24.4809 6.0524 24.5858 5.74613 24.6962 5.41806C24.8432 4.93481 24.8805 4.46401 24.8981 3.96689Z"
       fill="#D7AE52"
       id="path2568"
       style="fill:#ffffff" />
    <path
       d="M26.1096 15.3564C26.1096 15.3709 26.1096 15.3854 26.1096 15.4004C26.2928 15.4149 26.4761 15.4294 26.6649 15.4443C26.6649 15.4588 26.6649 15.4734 26.6649 15.4883C26.6347 15.4887 26.6045 15.4891 26.5733 15.4896C25.0922 15.5149 23.9741 15.9968 22.8786 16.8516C22.8411 16.8805 22.8036 16.9094 22.765 16.9392C22.2092 17.394 21.8531 17.9799 21.5155 18.5666C21.4822 18.5666 21.4489 18.5666 21.4146 18.5666C21.6062 17.9323 22.0762 17.4153 22.5757 16.9395C22.6119 16.9044 22.648 16.8692 22.6853 16.833C23.4991 16.0815 24.8896 15.325 26.1096 15.3564V15.3564Z"
       fill="#FAF5E7"
       id="path2570"
       style="fill:#000000" />
    <path
       d="M14.145 22.6562C14.2033 22.8086 14.1725 22.891 14.128 23.0432C13.93 23.7273 13.8547 24.5352 14.145 25.2067C14.1633 25.2516 14.1817 25.2965 14.2006 25.3428C14.3245 25.6242 14.4753 25.8572 14.7003 26.0862C14.6837 26.1153 14.667 26.1443 14.6498 26.1742C14.0698 25.669 13.7773 24.87 13.7664 24.1678C13.7696 23.8589 13.8191 23.5588 13.8831 23.2553C13.8914 23.2159 13.8998 23.1764 13.9083 23.1357C13.9875 22.7969 13.9875 22.7969 14.145 22.6562H14.145Z"
       fill="#F9F0D8"
       id="path2572"
       style="fill:#000000" />
    <path
       d="M20.9604 18.4346C20.9271 18.5072 20.8937 18.5797 20.8594 18.6545C20.6331 18.663 20.4067 18.6708 20.1803 18.6781C20.1033 18.6807 20.0263 18.6834 19.9494 18.6863C19.8386 18.6904 19.7278 18.694 19.617 18.6974C19.5656 18.6995 19.5656 18.6995 19.5131 18.7017C19.3286 18.7068 19.1987 18.6994 19.042 18.6105C19.6777 18.4555 20.3047 18.4213 20.9604 18.4346V18.4346Z"
       fill="#F9F5EB"
       id="path2574"
       style="fill:#000000" />
    <path
       d="M14.145 22.6562C14.2021 22.8055 14.1871 22.8583 14.147 23.0087C14.1357 23.0525 14.1243 23.0964 14.1127 23.1416C14.0943 23.2115 14.0943 23.2115 14.0756 23.2828C13.9721 23.6921 13.9011 24.0839 13.8926 24.5031C13.8759 24.5031 13.8593 24.5031 13.8421 24.5031C13.7977 23.3158 13.7977 23.3158 14.044 22.7441C14.0773 22.7151 14.1107 22.6861 14.145 22.6562H14.145Z"
       fill="#FAF8F0"
       id="path2576"
       style="fill:#000000" />
    <path
       d="M26.1097 15.3564C26.1097 15.3709 26.1097 15.3854 26.1097 15.4003C26.3846 15.4221 26.3846 15.4221 26.665 15.4443C26.665 15.4588 26.665 15.4733 26.665 15.4883C26.6348 15.4887 26.6046 15.4891 26.5735 15.4896C25.6574 15.4615 25.6574 15.4615 24.8476 15.7522C24.7466 15.754 24.6456 15.754 24.5447 15.7522C24.8848 15.4559 25.6449 15.3444 26.1097 15.3564V15.3564Z"
       fill="#F9F1DA"
       id="path2578"
       style="fill:#000000" />
    <path
       d="M19.6983 18.5226C19.6983 18.5371 19.6983 18.5516 19.6983 18.5665C20.0815 18.581 20.4646 18.5955 20.8594 18.6105C20.8594 18.625 20.8594 18.6395 20.8594 18.6545C20.6331 18.6629 20.4067 18.6708 20.1803 18.6781C20.1033 18.6806 20.0263 18.6834 19.9494 18.6863C19.8386 18.6904 19.7278 18.694 19.617 18.6974C19.5656 18.6995 19.5656 18.6995 19.5131 18.7017C19.3286 18.7068 19.1987 18.6994 19.042 18.6105C19.4675 18.51 19.4675 18.51 19.6983 18.5226Z"
       fill="#F9EDC3"
       id="path2580"
       style="fill:#000000" />
    <path
       d="M48.5751 14.8727C48.692 15.0253 48.7493 15.1804 48.8117 15.3536C48.8298 15.4009 48.8298 15.4009 48.8481 15.449C48.9077 15.6132 48.9376 15.72 48.878 15.8841C48.8172 15.7488 48.7575 15.6131 48.6982 15.4773C48.6809 15.4389 48.6636 15.4006 48.6458 15.361C48.6216 15.3053 48.6216 15.3053 48.597 15.2485C48.5819 15.2144 48.5669 15.1803 48.5513 15.1452C48.5215 15.0371 48.5341 14.9766 48.5751 14.8727H48.5751Z"
       fill="#E5B85D"
       id="path2582"
       style="fill:#ffffff" />
    <path
       d="m 29.451251,19.657533 c -0.609,0.0022 -1.1887,0.059 -1.7838,0.2151 -1.8935,0.5236 -3.5604,1.6889 -4.4871,3.2289 -0.0185,0.0316 -0.0364,0.0622 -0.0544,0.0928 -0.052,0.0875 -0.0944,0.1695 -0.1287,0.2522 -0.1137,0.1402 -0.3237,0.8286 -0.3237,0.8286 0,0 -0.0459,0.7607 0.0368,0.5205 0.0827,-0.2402 0.4044,-1.2212 0.4044,-1.2212 l -3e-4,-8e-4 c 0.3303,-0.7016 0.8547,-1.3618 1.477101,-1.8791 0.0424,-0.0339 0.0835,-0.0668 0.124599,-0.0998 0.2701,-0.2196 0.5443,-0.433 0.8393,-0.6271 0.0408,-0.026 0.0804,-0.0512 0.119901,-0.0765 0.4521,-0.2911 0.931,-0.5111 1.4466,-0.7042 0.0598,-0.0219 0.0598,-0.0219 0.1184,-0.0433 1.0985,-0.2627 1.0985,-0.2628 2.2474,-0.2634 0.0426,-2e-4 0.084,-3e-4 0.125399,-5e-4 l 0.101,-0.2199 c -0.0884,-0.0018 -0.1759,-0.0026 -0.2629,-0.0023 z"
       fill="#FAF6EA"
       id="path2566-8"
       style="fill:#000000" />
    <path
       d="m 26.0817,15.147 c -0.3471,-0.0016 -0.6964,0.0454 -1.0007,0.1261 l -0.1325,0.0393 c -0.2287,0.0588 -0.4449,0.1308 -0.661,0.219 -1.309,0.5531 -2.7236,1.501 -3.2372,2.7438 l -0.0396,0.1154 -0.1514,-0.0439 c -0.0806,-0.024 -0.1617,-0.0467 -0.243,-0.0687 -1.1321,-0.2638 -2.4645,0.2082 -3.4532,0.6842 l -0.0901,0.0441 c -0.5673,0.2773 -1.2113,0.6369 -1.6789,1.0651 l 0.0129,-0.0207 c 0,0 -1.672626,1.531821 -2.026644,2.5809 -0.0431,0.0934 -0.05776,0.1872 -0.09586,0.2821 l -0.0483,0.1383 c -0.1892,0.5409 -0.2837,1.0913 -0.1807,1.6557 0.2744,0.9706 0.8254,1.8112 1.7782,2.397 1.8623,1.0644 4.8429,1.2408 7.0052,0.8927 0.2658,-0.0287 0.8458,-0.1144 1.0379,-0.1432 l 0.0925,0.0652 c 0.053,0.0417 0.1059,0.0834 0.1619,0.1218 l 0.1008,0.0679 c 0.7208,0.5171 1.5635,0.763 2.4645,0.9368 l 0.1607,0.0306 c 0.8684,0.1751 1.7008,0.2382 2.5899,0.2393 l 0.1583,-2e-4 c 0.5822,2e-4 1.1559,-0.0055 1.7323,-0.0828 l 0.164,-0.0244 c 1.1406,-0.1623 2.2553,-0.4584 3.2837,-0.9222 l 0.0987,-0.0452 c 1.2333,-0.5598 2.2762,-1.3343 2.8365,-2.4631 0.4156,-0.8847 0.2871,-1.7801 -0.1261,-2.6447 -0.8049,-1.452 -2.1211,-2.3592 -3.8317,-2.9367 L 32.622,20.1496 c 0.043,-0.2487 0.0582,-0.4913 0.0599,-0.7428 l 1e-4,-0.1394 c 0.0014,-0.1061 0.0015,-0.2092 -0.0025,-0.3121 -0.008,-0.0549 -0.0162,-0.1112 -0.0232,-0.155 C 32.5486,18.4645 32.4177,18.1606 32.37,18.0528 31.8956,17.2114 31.1879,16.5209 30.195,16.079 L 30.0473,16.016 C 29.6,15.8157 29.1687,15.6602 28.6762,15.5664 l -0.1939,-0.0341 c -0.3014,-0.0533 -0.5942,-0.0766 -0.891,-0.0853 -0.0987,-0.0083 -0.1918,-0.0123 -0.2785,-0.0121 -0.0705,10e-5 -0.1336,0.0045 -0.1964,0.0091 -0.016,2e-4 -0.0316,-1e-4 -0.0476,3e-4 v 0.0019 c -0.5401,0.0489 -0.7769,0.2415 -0.792,0.2542 -0.0059,0.0034 -0.0096,0.0041 -0.0158,0.0077 0.1481,-9e-4 0.2963,-0.0016 0.4444,-0.0021 l 0.1835,-6e-4 c 0.2718,-0.0018 0.5435,-0.0048 0.8149,0.0096 1.376,0.1169 2.794,0.8361 3.6719,1.7493 0.7015,0.8032 0.833,1.5791 0.691,2.5533 -0.2463,-0.0678 -0.488,-0.1105 -0.7436,-0.1425 L 31.18,19.8582 c -0.0369,-0.0043 -0.0768,-0.0093 -0.1147,-0.0141 -0.3549,-0.0057 -1.4306,0.002 -2.102,0.2831 l 0.0061,-2e-4 c -0.0109,0.0082 -0.0217,0.0129 -0.0328,0.0225 0.1995,-0.0018 0.399,-0.0033 0.5985,-0.0042 l 0.2471,-0.0012 c 0.4756,-0.0045 0.9355,-0.0087 1.4046,0.0709 l 0.0632,0.0116 c 0.0649,0.0097 0.1347,0.0204 0.2289,0.037 l 0.0111,0.0017 0.1349,0.0217 0.1365,0.0219 c 0.6255,0.2059 1.3249,0.4983 1.3977,0.529 1.0701,0.4832 2.0105,1.213 2.6025,2.1164 0.4652,0.7407 0.6662,1.602 0.4023,2.4293 -0.3747,0.9967 -1.2343,1.7102 -2.2716,2.2109 l -0.1597,0.0748 c -0.8683,0.4266 -1.8873,0.7721 -2.8762,0.9008 -0.1107,0.0121 -0.221,0.025 -0.3313,0.0399 -0.7834,0.1071 -1.5518,0.1343 -2.3442,0.1183 l -0.153,-0.0036 c -0.9071,-0.0202 -1.867,-0.1214 -2.745,-0.3764 -0.1283,-0.0129 -0.2601,-0.0369 -0.3962,-0.0769 -0.9429,-0.2766 -1.4907,-0.808 -1.7921,-1.2255 -0.0338,-0.0341 -0.0663,-0.0711 -0.0975,-0.1182 L 22.929,26.7898 c -10e-5,-3e-4 -2e-4,-6e-4 -3e-4,-8e-4 -0.1145,-0.2008 -0.1585,-0.3373 -0.1585,-0.3373 l 0.0039,-0.0018 c -0.08,-0.186 -0.1501,-0.3748 -0.1841,-0.5729 -0.1331,-1.3189 0.2777,-2.5352 1.1955,-3.5905 l 0.1027,-0.1141 c 0.1949,-0.2189 0.3849,-0.4407 0.6279,-0.6211 0.0322,-0.0224 0.062,-0.0467 0.0934,-0.0693 0.5968,-0.5932 1.315,-0.9727 1.8848,-1.2041 l 0.004,-0.0064 c 0.0107,-0.0034 0.0232,-0.0056 0.034,-0.0085 0.5486,-0.219 0.9508,-0.3 0.9508,-0.3 l 0.0012,0.0087 c 0.7091,-0.1899 1.4129,-0.2676 2.196,-0.3013 l 0.1145,-0.0045 v -0.044 c -1.0655,-0.27 -1.9456,-0.1593 -2.9722,0.1869 -0.1729,0.0611 -0.3418,0.1171 -0.5236,0.156 -0.1509,0.0217 -0.1509,0.0217 -0.2999,-0.0791 -1.238,-0.8509 -2.8513,-1.323 -4.4249,-1.2814 l -0.135,0.0052 c -0.0015,-0.0088 -0.0025,-0.0213 -0.0042,-0.0409 0.2533,-0.5688 0.5991,-1.086 1.0814,-1.5338 1.2741,-1.1078 2.64,-1.6609 4.4508,-1.678 l 0.0791,-4e-4 c -0.0309,-0.016 -0.1361,-0.0694 -0.304,-0.1406 -0.2107,-0.0461 -0.4352,-0.0678 -0.6607,-0.0689 z m -5.3271,3.2839 c 0.0683,3e-4 0.1368,0.0015 0.2056,0.0037 l -0.0315,0.1044 c -0.0581,0.1259 -0.0581,0.1259 -0.2055,0.1674 l -0.1668,0.036 -0.1732,0.0471 -0.362,0.0965 -0.0139,-6e-4 -0.0297,0.0122 -0.0775,0.0207 0.0314,-0.0016 -0.1766,0.0731 c 0,0 1.0978,-0.0895 1.8799,-0.1205 0.0779,7e-4 0.1557,0.0018 0.2341,0.0051 1.254,0.1116 2.9224,0.6063 3.7863,1.4511 -1.6833,0.8914 -2.9314,2.2322 -3.6273,3.8406 -0.3359,0.9334 -0.291,1.8614 0.1741,2.7531 0.0616,0.117 0.1182,0.2345 0.1718,0.3544 -1.0569,0.2499 -1.057,0.2499 -2.1641,0.2349 L 20.0673,27.5072 C 18.6629,27.4993 17.2145,27.4849 15.9179,26.9486 L 15.7604,26.8778 C 15.449,26.7444 15.1549,26.6051 14.8887,26.4094 14.225,25.8861 13.8324,25.124 13.771,24.3472 c -0.0556,-1.3477 0.5771,-2.6595 1.5896,-3.662 1.3673,-1.3063 3.1579,-2.2033 5.19,-2.2522 0.0678,-0.0016 0.1358,-0.0023 0.204,-0.002 z"
       fill="#DEA731"
       id="path2584"
       style="fill:#ffffff"
       sodipodi:nodetypes="ccccccccccccccccccccccccccccccccccccccccccccccccccccccccccccccccccccccccccccccccccccccccccccccccccccccccccccccccccccccccccccccccccccccccccc" />
    <path
       d="m 1.0603219,27.6693 c 0.1075031,0.1633 0.1384727,0.3139 0.181911,0.503 0.012391,0.0504 0.012391,0.0504 0.025032,0.1018 0.00759,0.0325 0.015179,0.0651 0.022993,0.0987 0.010438,0.0443 0.010438,0.0443 0.021074,0.0895 0.010937,0.0981 -0.00503,0.1688 -0.033801,0.2624 -0.045185,-0.1344 -0.089209,-0.2691 -0.1330343,-0.404 -0.012796,-0.038 -0.025591,-0.076 -0.038783,-0.1152 -0.011892,-0.0369 -0.023793,-0.0739 -0.036055,-0.112 -0.011152,-0.0339 -0.022296,-0.0677 -0.033781,-0.1026 -0.022267,-0.1192 -0.00555,-0.2051 0.024444,-0.3216 z"
       fill="#E9C57E"
       id="path2586"
       style="fill:#ffffff;stroke-width:0.927635" />
    <path
       d="M14.145 22.6562C14.2005 22.8012 14.189 22.8499 14.1482 22.9942C14.1335 23.0476 14.1335 23.0476 14.1184 23.1019C14.1106 23.129 14.1027 23.156 14.0946 23.1839C14.0446 23.1839 13.9946 23.1839 13.9431 23.1839C13.9792 22.807 13.9792 22.807 14.1451 22.6562H14.145Z"
       fill="#F9F3E2"
       id="path2588"
       style="fill:#000000" />
    <path
       d="m 0.90088627,27.142158 c 0.0166339,-9.32e-4 0.0332668,-0.0019 0.0504049,-0.0028 0.0722708,0.201773 0.077807,0.401576 0.0848447,0.611912 -0.034074,-0.01261 -0.068153,-0.02523 -0.10326738,-0.03828 -0.0369821,-0.08897 -0.0369821,-0.08897 -0.0679271,-0.197109 -0.0104831,-0.03587 -0.0209605,-0.07164 -0.0317561,-0.108493 -0.007678,-0.02771 -0.0153588,-0.05543 -0.0232677,-0.08393 0.0332668,-0.0019 0.0665337,-0.0037 0.10080989,-0.0056 -0.003245,-0.05791 -0.006495,-0.115918 -0.009841,-0.175624 z"
       fill="#E3B555"
       id="path2590"
       style="fill:#ffffff" />
    <path
       d="M33.4865 21.8317C33.3761 21.8317 33.2702 21.8699 33.192 21.9379C33.1139 22.006 33.0701 22.0982 33.0701 22.1945C33.0701 22.2421 33.0808 22.2893 33.1018 22.3333C33.1227 22.3773 33.1534 22.4173 33.192 22.451C33.2307 22.4847 33.2766 22.5114 33.3272 22.5296C33.3777 22.5479 33.4319 22.5573 33.4865 22.5573C33.5412 22.5573 33.5954 22.5479 33.6459 22.5296C33.6965 22.5114 33.7424 22.4847 33.7811 22.451C33.8197 22.4173 33.8504 22.3773 33.8713 22.3333C33.8923 22.2893 33.903 22.2421 33.903 22.1945C33.903 22.1468 33.8923 22.0996 33.8713 22.0556C33.8504 22.0116 33.8197 21.9716 33.7811 21.9379C33.7424 21.9042 33.6965 21.8775 33.6459 21.8593C33.5954 21.841 33.5412 21.8317 33.4865 21.8317ZM32.7198 22.2604C32.673 22.2604 32.6266 22.2685 32.5834 22.2841C32.5401 22.2997 32.5008 22.3225 32.4677 22.3514C32.4346 22.3802 32.4083 22.4145 32.3904 22.4521C32.3725 22.4898 32.3633 22.5302 32.3633 22.571C32.3633 22.6118 32.3725 22.6522 32.3904 22.6898C32.4083 22.7275 32.4346 22.7618 32.4677 22.7906C32.5008 22.8194 32.5401 22.8423 32.5834 22.8579C32.6266 22.8735 32.673 22.8816 32.7198 22.8816C32.8144 22.8816 32.9051 22.8488 32.9719 22.7906C33.0388 22.7324 33.0764 22.6534 33.0764 22.571C33.0764 22.5302 33.0671 22.4898 33.0492 22.4521C33.0313 22.4145 33.005 22.3802 32.9719 22.3514C32.9388 22.3225 32.8995 22.2997 32.8563 22.2841C32.813 22.2685 32.7666 22.2604 32.7198 22.2604ZM33.2026 22.7277C33.1694 22.7277 33.1366 22.7333 33.106 22.7444C33.0754 22.7554 33.0475 22.7716 33.0241 22.7921C33.0006 22.8125 32.9821 22.8367 32.9694 22.8634C32.9567 22.8901 32.9502 22.9187 32.9502 22.9475C32.9502 23.0058 32.9768 23.0618 33.0241 23.103C33.0714 23.1442 33.1356 23.1674 33.2026 23.1674C33.2695 23.1674 33.3337 23.1442 33.3811 23.103C33.4284 23.0618 33.455 23.0058 33.455 22.9475C33.455 22.8892 33.4284 22.8333 33.3811 22.7921C33.3337 22.7508 33.2695 22.7277 33.2026 22.7277Z"
       fill="#FCFCF8"
       id="path2592" />
    <path
       d="m 30.04085,17.3009 c -0.1104,0 -0.2163,0.0382 -0.2945,0.1062 -0.0781,0.0681 -0.1219,0.1603 -0.1219,0.2566 0,0.0476 0.0107,0.0948 0.0317,0.1388 0.0209,0.044 0.0516,0.084 0.0902,0.1177 0.0387,0.0337 0.0846,0.0604 0.1352,0.0786 0.0505,0.0183 0.1047,0.0277 0.1593,0.0277 0.0547,0 0.1089,-0.0094 0.1594,-0.0277 0.0506,-0.0182 0.0965,-0.0449 0.1352,-0.0786 0.0386,-0.0337 0.0693,-0.0737 0.0902,-0.1177 0.021,-0.044 0.0317,-0.0912 0.0317,-0.1388 0,-0.0477 -0.0107,-0.0949 -0.0317,-0.1389 -0.0209,-0.044 -0.0516,-0.084 -0.0902,-0.1177 -0.0387,-0.0337 -0.0846,-0.0604 -0.1352,-0.0786 -0.0505,-0.0183 -0.1047,-0.0276 -0.1594,-0.0276 z m -0.7667,0.4287 c -0.0468,0 -0.0932,0.0081 -0.1364,0.0237 -0.0433,0.0156 -0.0826,0.0384 -0.1157,0.0673 -0.0331,0.0288 -0.0594,0.0631 -0.0773,0.1007 -0.0179,0.0377 -0.0271,0.0781 -0.0271,0.1189 0,0.0408 0.0092,0.0812 0.0271,0.1188 0.0179,0.0377 0.0442,0.072 0.0773,0.1008 0.0331,0.0288 0.0724,0.0517 0.1157,0.0673 0.0432,0.0156 0.0896,0.0237 0.1364,0.0237 0.0946,0 0.1853,-0.0328 0.2521,-0.091 0.0669,-0.0582 0.1045,-0.1372 0.1045,-0.2196 0,-0.0408 -0.0093,-0.0812 -0.0272,-0.1189 -0.0179,-0.0376 -0.0442,-0.0719 -0.0773,-0.1007 -0.0331,-0.0289 -0.0724,-0.0517 -0.1156,-0.0673 -0.0433,-0.0156 -0.0897,-0.0237 -0.1365,-0.0237 z m 0.4828,0.4673 c -0.0332,0 -0.066,0.0056 -0.0966,0.0167 -0.0306,0.011 -0.0585,0.0272 -0.0819,0.0477 -0.0235,0.0204 -0.042,0.0446 -0.0547,0.0713 -0.0127,0.0267 -0.0192,0.0553 -0.0192,0.0841 0,0.0583 0.0266,0.1143 0.0739,0.1555 0.0473,0.0412 0.1115,0.0644 0.1785,0.0644 0.0669,0 0.1311,-0.0232 0.1785,-0.0644 0.0473,-0.0412 0.0739,-0.0972 0.0739,-0.1555 0,-0.0583 -0.0266,-0.1142 -0.0739,-0.1554 -0.0474,-0.0413 -0.1116,-0.0644 -0.1785,-0.0644 z"
       fill="#fcfcf8"
       id="path2592-7" />
    <path
       d="M16.6273 22.0538C16.7538 22.0538 16.8563 21.9645 16.8563 21.8543C16.8563 21.7441 16.7538 21.6547 16.6273 21.6547C16.5008 21.6547 16.3982 21.7441 16.3982 21.8543C16.3982 21.9645 16.5008 22.0538 16.6273 22.0538Z"
       fill="#FCFCF8"
       id="path2600" />
  </g>
  <defs
     id="defs2607">
    <inkscape:path-effect
       effect="interpolate_points"
       id="path-effect1609"
       is_visible="true"
       lpeversion="1"
       interpolator_type="Linear" />
    <inkscape:path-effect
       effect="fillet_chamfer"
       id="path-effect1607"
       is_visible="true"
       lpeversion="1"
       nodesatellites_param="F,0,0,1,0,0,0,9000 @ F,0,0,1,0,0,0,9000 @ F,0,0,1,0,0,0,9000 @ F,0,0,1,0,0,0,9000 @ F,0,0,1,0,0,0,9000 @ F,0,0,1,0,0,0,9000 @ F,0,0,1,0,0,0,9000 @ F,0,0,1,0,0,0,9000 @ F,0,0,1,0,0,0,9000 @ F,0,0,1,0,0,0,9000 @ F,0,0,1,0,0,0,9000 @ F,0,0,1,0,0,0,9000 @ F,0,0,1,0,0,0,9000 @ F,0,0,1,0,0,0,9000 @ F,0,0,1,0,0,0,9000 @ F,0,0,1,0,0,0,9000 @ F,0,0,1,0,0,0,9000 @ F,0,0,1,0,0,0,9000 @ F,0,0,1,0,0,0,9000 @ F,0,0,1,0,0,0,9000 @ F,0,0,1,0,0,0,9000 @ F,0,0,1,0,0,0,9000 @ F,0,0,1,0,0,0,9000 @ F,0,0,1,0,0,0,9000 @ F,0,0,1,0,0,0,9000 @ F,0,0,1,0,0,0,9000 @ F,0,0,1,0,0,0,9000 @ F,0,0,1,0,0,0,9000 @ F,0,0,1,0,0,0,9000 @ F,0,0,1,0,0,0,9000 @ F,0,0,1,0,0,0,9000 @ F,0,0,1,0,0,0,9000 @ F,0,0,1,0,0,0,9000 @ F,0,0,1,0,0,0,9000 @ F,0,0,1,0,0,0,9000 @ F,0,0,1,0,0,0,9000 @ F,0,0,1,0,0,0,9000 @ F,0,0,1,0,0,0,9000 @ F,0,0,1,0,0,0,9000 @ F,0,0,1,0,0,0,9000 @ F,0,0,1,0,0,0,9000 @ F,0,0,1,0,0,0,9000 @ F,0,0,1,0,0,0,9000 @ F,0,0,1,0,0,0,9000 @ F,0,0,1,0,0,0,9000 @ F,0,0,1,0,0,0,9000 @ F,0,0,1,0,0,0,9000 @ F,0,0,1,0,0,0,9000 @ F,0,0,1,0,0,0,9000 @ F,0,0,1,0,0,0,9000 @ F,0,0,1,0,0,0,9000 @ F,0,0,1,0,0,0,9000 @ F,0,0,1,0,0,0,9000 @ F,0,0,1,0,0,0,9000 @ F,0,0,1,0,0,0,9000 @ F,0,0,1,0,0,0,9000 @ F,0,0,1,0,0,0,9000 @ F,0,0,1,0,0,0,9000 @ F,0,0,1,0,0,0,9000 @ F,0,0,1,0,0,0,9000 @ F,0,0,1,0,0,0,9000 @ F,0,0,1,0,0,0,9000 @ F,0,0,1,0,0,0,9000 @ F,0,0,1,0,0,0,9000 @ F,0,0,1,0,0,0,9000 @ F,0,0,1,0,0,0,9000 @ F,0,0,1,0,0,0,9000 @ F,0,0,1,0,0,0,9000 @ F,0,0,1,0,0,0,9000 @ F,0,0,1,0,0,0,9000 @ F,0,0,1,0,0,0,9000 @ F,0,0,1,0,0,0,9000 @ F,0,0,1,0,0,0,9000 @ F,0,0,1,0,0,0,9000 @ F,0,0,1,0,0,0,9000 @ F,0,0,1,0,0,0,9000 @ F,0,0,1,0,0,0,9000 @ F,0,0,1,0,0,0,9000 @ F,0,0,1,0,0,0,9000 @ F,0,0,1,0,0,0,9000 @ F,0,0,1,0,0,0,9000 @ F,0,0,1,0,0,0,9000 @ F,0,0,1,0,0,0,9000 @ F,0,0,1,0,0,0,9000 @ F,0,0,1,0,0,0,9000 @ F,0,0,1,0,0,0,9000 @ F,0,0,1,0,0,0,9000 @ F,0,0,1,0,0,0,9000 @ F,0,0,1,0,0,0,9000 @ F,0,0,1,0,0,0,9000 @ F,0,0,1,0,0,0,9000 @ F,0,0,1,0,0,0,9000 @ F,0,0,1,0,0,0,9000 @ F,0,0,1,0,0,0,9000 @ F,0,0,1,0,0,0,9000 @ F,0,0,1,0,0,0,9000 @ F,0,0,1,0,0,0,9000 @ F,0,0,1,0,0,0,9000 @ F,0,0,1,0,0,0,9000 @ F,0,0,1,0,0,0,9000 @ F,0,0,1,0,0,0,9000 @ F,0,0,1,0,0,0,9000 @ F,0,0,1,0,0,0,9000 @ F,0,0,1,0,0,0,9000 @ F,0,0,1,0,0,0,9000 @ F,0,0,1,0,0,0,9000 @ F,0,0,1,0,0,0,9000 @ F,0,0,1,0,0,0,9000 @ F,0,0,1,0,0,0,9000 @ F,0,0,1,0,0,0,9000 | F,0,0,1,0,0,0,9000 @ F,0,0,1,0,0,0,9000 @ F,0,0,1,0,0,0,9000 @ F,0,0,1,0,0,0,9000 @ F,0,0,1,0,0,0,9000 @ F,0,0,1,0,0,0,9000 @ F,0,0,1,0,0,0,9000 @ F,0,0,1,0,0,0,9000 @ F,0,0,1,0,0,0,9000 @ F,0,0,1,0,0,0,9000 @ F,0,0,1,0,0,0,9000 @ F,0,0,1,0,0,0,9000 @ F,0,0,1,0,0,0,9000 @ F,0,0,1,0,0,0,9000 @ F,0,0,1,0,0,0,9000 @ F,0,0,1,0,0,0,9000 @ F,0,0,1,0,0,0,9000 @ F,0,0,1,0,0,0,9000 @ F,0,0,1,0,0,0,9000 @ F,0,0,1,0,0,0,9000 @ F,0,0,1,0,0,0,9000 @ F,0,0,1,0,0,0,9000 @ F,0,0,1,0,0,0,9000 @ F,0,0,1,0,0,0,9000 @ F,0,0,1,0,0,0,9000 @ F,0,0,1,0,0,0,9000 @ F,0,0,1,0,0,0,9000"
       unit="px"
       method="bezier"
       mode="F"
       radius="0"
       chamfer_steps="9000"
       flexible="false"
       use_knot_distance="true"
       apply_no_radius="true"
       apply_with_radius="true"
       only_selected="false"
       hide_knots="false" />
    <clipPath
       id="clip0_60_311">
      <rect
         width="50"
         height="30"
         fill="white"
         id="rect2604" />
    </clipPath>
  </defs>
</svg>
