<?xml version="1.0" encoding="UTF-8" standalone="no"?>
<!-- Created with Inkscape (http://www.inkscape.org/) -->

<svg
   version="1.1"
   id="svg512"
   width="20"
   height="20"
   viewBox="0 0 20 20"
   sodipodi:docname="logomarcas__whatsapp.svg"
   inkscape:version="1.2 (dc2aedaf03, 2022-05-15)"
   xmlns:inkscape="http://www.inkscape.org/namespaces/inkscape"
   xmlns:sodipodi="http://sodipodi.sourceforge.net/DTD/sodipodi-0.dtd"
   xmlns="http://www.w3.org/2000/svg"
   xmlns:svg="http://www.w3.org/2000/svg">
  <defs
     id="defs516">
    <clipPath
       clipPathUnits="userSpaceOnUse"
       id="clipPath528">
      <path
         d="M 0,1066.861 H 1280.244 V 0 H 0 Z"
         id="path526" />
    </clipPath>
    <clipPath
       clipPathUnits="userSpaceOnUse"
       id="clipPath540">
      <path
         d="M 0,1066.861 H 1280.244 V 0 H 0 Z"
         id="path538" />
    </clipPath>
  </defs>
  <sodipodi:namedview
     id="namedview514"
     pagecolor="#ffffff"
     bordercolor="#000000"
     borderopacity="0.25"
     inkscape:showpageshadow="2"
     inkscape:pageopacity="0.0"
     inkscape:pagecheckerboard="0"
     inkscape:deskcolor="#d1d1d1"
     showgrid="false"
     inkscape:zoom="16.702371"
     inkscape:cx="6.2865327"
     inkscape:cy="9.6992219"
     inkscape:window-width="1366"
     inkscape:window-height="705"
     inkscape:window-x="-8"
     inkscape:window-y="-8"
     inkscape:window-maximized="1"
     inkscape:current-layer="g530">
    <inkscape:page
       x="0"
       y="0"
       id="page518"
       width="20"
       height="20" />
  </sodipodi:namedview>
  <g
     id="g520"
     inkscape:groupmode="layer"
     inkscape:label="Page 1"
     transform="matrix(0.66666657,0,0,-0.66666659,0,711.23996)">
    <g
       id="g522"
       transform="matrix(0.02343304,0,0,0.02811988,0,1036.86)">
      <g
         id="g524"
         clip-path="url(#clipPath528)">
        <g
           id="g530"
           transform="translate(1260.3838)">
          <rect
             style="fill:#c8871f;fill-opacity:1;fill-rule:evenodd;stroke-width:1.00919"
             id="rect9295"
             width="30.000004"
             height="30.000004"
             x="7.1054274e-15"
             y="-1066.8601"
             transform="matrix(42.674787,0,0,-35.562029,-1260.3838,-36872.846)"
             rx="3.0000005" />
        </g>
      </g>
    </g>
    <g
       id="g534"
       transform="matrix(0.02343304,0,0,0.02811988,7.5000082,1029.36)">
      <g
         id="g536"
         clip-path="url(#clipPath540)">
        <g
           id="g542"
           transform="translate(736.1802,489.2339)">
          <path
             d="m -269.47241,257.96636 c -7.96366,3.30546 -47.11718,19.28145 -54.41758,21.48804 -7.29888,2.20407 -12.60799,3.3042 -17.91709,-3.30546 -5.30911,-6.61092 -20.57165,-21.48931 -25.2175,-25.89744 -4.64432,-4.40686 -9.29017,-4.96073 -17.25383,-1.65273 -7.96366,3.30546 -33.62434,10.27888 -64.04244,32.78213 -23.67397,17.51338 -39.65784,39.14084 -44.30216,45.75303 -4.64585,6.61219 -0.49668,10.18635 3.4905,13.47914 3.58373,2.95945 7.96519,7.71486 11.94626,11.57165 3.98259,3.85553 5.3091,6.6122 7.96366,11.01779 2.65455,4.4094 1.32804,8.26493 -0.66479,11.57039 -1.98977,3.30546 -17.91709,35.81636 -24.55271,49.04201 -6.46445,12.87711 -13.02977,11.13313 -17.91861,11.33718 -4.63974,0.19139 -9.95496,0.23194 -15.26254,0.23194 -5.30911,0 -13.93755,-1.65273 -21.23796,-8.26366 -7.29887,-6.61219 -27.87204,-22.59197 -27.87204,-55.09907 0,-32.5109 28.5353,-63.91533 32.51789,-68.32346 3.9826,-4.40939 56.15519,-71.11941 136.04549,-99.72789 18.99908,-6.80611 33.83371,-10.86949 45.39943,-13.9126 19.07703,-5.0279 36.43784,-4.31814 50.15991,-2.61724 15.30074,1.89481 47.11717,15.97598 53.75432,31.40316 6.63562,15.43098 6.63562,28.6541 4.64432,31.40823 -1.98976,2.7554 -7.29887,4.40813 -15.26253,7.71486 M -414.78056,93.422004 h -0.10698 c -47.53591,0.0152 -94.15947,10.607136 -134.83206,30.623686 l -9.67376,4.76174 -100.26173,-21.8125 26.76101,81.07256 -6.29788,8.31308 c -26.51802,34.97859 -40.52434,75.40714 -40.50295,116.92061 0.0581,121.13228 118.8971,219.68272 265.0198,219.68272 70.75753,-0.0203 137.2696,-22.90249 187.28738,-64.43117 50.01472,-41.52615 77.54291,-96.72534 77.51541,-155.42899 -0.0596,-121.14242 -118.8971,-219.701736 -264.90824,-219.701736 m 225.45824,406.685986 c -60.17446,49.96343 -140.19924,77.49079 -225.4613,77.51994 -175.67581,0 -318.65492,-118.5708 -318.72522,-264.31028 -0.0229,-46.58826 14.65277,-92.05992 42.54469,-132.14753 l -45.21605,-136.972646 168.9592,36.7568 c 46.55325,-21.05838 98.96731,-32.15855 152.31054,-32.1725 h 0.1299 10e-4 c 175.65747,0 318.64881,118.582206 318.72063,264.324216 0.0321,70.62892 -33.08946,137.03982 -93.26392,187.002"
             style="fill:#ffffff;fill-opacity:1;fill-rule:evenodd;stroke:none;stroke-width:1.39174"
             id="path544" />
        </g>
      </g>
    </g>
  </g>
</svg>
